<?xml version="1.0" standalone="no"?>
<!DOCTYPE svg PUBLIC "-//W3C//DTD SVG 1.1//EN" "http://www.w3.org/Graphics/SVG/1.1/DTD/svg11.dtd">
<svg xmlns="http://www.w3.org/2000/svg" xmlns:xlink="http://www.w3.org/1999/xlink" width="375" zoomAndPan="magnify" viewBox="0 0 375 374.999991" height="375" preserveAspectRatio="xMidYMid meet" version="1.0"><defs><g/><clipPath id="5de402f443"><path d="M 120 126.667969 L 256.988281 126.667969 L 256.988281 158 L 120 158 Z M 120 126.667969 " clip-rule="nonzero"/></clipPath><clipPath id="44b905987b"><path d="M 160 160 L 238 160 L 238 248.167969 L 160 248.167969 Z M 160 160 " clip-rule="nonzero"/></clipPath></defs><path fill="#13084b" d="M 187.972656 182.21875 L 200.304688 160.441406 L 149.59375 160.441406 C 144.261719 160.441406 137.671875 162.074219 140.96875 169.480469 L 153.296875 190.847656 C 153.707031 183.851562 157.816406 182.21875 163.992188 182.21875 Z M 187.972656 182.21875 " fill-opacity="1" fill-rule="nonzero"/><g clip-path="url(#5de402f443)"><path fill="#13084b" d="M 129.753906 126.71875 C 123.164062 126.71875 118.238281 130.011719 121.941406 136.570312 L 128.910156 148.492188 L 134.269531 157.964844 C 133.863281 155.488281 134.679688 153.039062 136.339844 151.378906 C 137.972656 149.746094 140.449219 148.492188 142.519531 148.492188 C 176.625 148.492188 210.347656 148.492188 244.042969 148.492188 L 256.753906 126.71875 Z M 129.753906 126.71875 " fill-opacity="1" fill-rule="nonzero"/></g><g clip-path="url(#44b905987b)"><path fill="#2167ff" d="M 186.53125 204.890625 L 180.296875 194.140625 L 167.96875 194.140625 C 161.378906 194.140625 158.113281 199.066406 161.378906 204.835938 L 161.433594 204.917969 C 166.390625 213.574219 186.53125 248.277344 186.53125 248.277344 C 203.351562 218.71875 220.199219 189.566406 237.019531 160.414062 L 212.226562 160.414062 Z M 186.53125 204.890625 " fill-opacity="1" fill-rule="nonzero"/></g><g fill="#13084b" fill-opacity="1"><g transform="translate(219.761006, 288.658721)"><g><path d="M 14.203125 0 L 1.46875 0 L 1.46875 -3.078125 C 1.46875 -5.054688 1.820312 -6.71875 2.53125 -8.0625 C 3.25 -9.414062 4.207031 -10.523438 5.40625 -11.390625 C 6.613281 -12.253906 7.925781 -12.9375 9.34375 -13.4375 C 10.757812 -13.945312 12.171875 -14.328125 13.578125 -14.578125 C 14.992188 -14.835938 16.300781 -15.039062 17.5 -15.1875 C 18.707031 -15.34375 19.671875 -15.492188 20.390625 -15.640625 C 21.109375 -15.785156 21.46875 -16.003906 21.46875 -16.296875 C 21.46875 -16.585938 21.109375 -16.796875 20.390625 -16.921875 C 19.671875 -17.054688 18.75 -17.144531 17.625 -17.1875 C 16.507812 -17.238281 15.332031 -17.265625 14.09375 -17.265625 C 12.957031 -17.296875 11.851562 -17.296875 10.78125 -17.265625 C 9.707031 -17.234375 8.84375 -17.21875 8.1875 -17.21875 C 6.5625 -17.21875 5.316406 -17.425781 4.453125 -17.84375 C 3.597656 -18.269531 3.003906 -18.863281 2.671875 -19.625 C 2.347656 -20.394531 2.1875 -21.300781 2.1875 -22.34375 C 2.1875 -23.582031 2.300781 -24.898438 2.53125 -26.296875 C 2.757812 -27.691406 2.875 -29.070312 2.875 -30.4375 C 2.875 -31.675781 2.675781 -32.601562 2.28125 -33.21875 C 1.894531 -33.832031 1.703125 -34.140625 1.703125 -34.140625 C 1.703125 -34.140625 2.082031 -34.140625 2.84375 -34.140625 C 3.613281 -34.140625 4.625 -34.140625 5.875 -34.140625 C 7.125 -34.140625 8.503906 -34.140625 10.015625 -34.140625 C 11.535156 -34.140625 13.039062 -34.140625 14.53125 -34.140625 C 16.03125 -34.140625 17.40625 -34.140625 18.65625 -34.140625 C 19.90625 -34.140625 20.910156 -34.140625 21.671875 -34.140625 C 22.441406 -34.140625 22.828125 -34.140625 22.828125 -34.140625 C 23.867188 -34.140625 24.910156 -34.066406 25.953125 -33.921875 C 26.992188 -33.773438 27.941406 -33.484375 28.796875 -33.046875 C 29.660156 -32.609375 30.351562 -31.929688 30.875 -31.015625 C 31.394531 -30.109375 31.65625 -28.890625 31.65625 -27.359375 C 31.65625 -25.347656 30.992188 -23.691406 29.671875 -22.390625 C 28.359375 -21.085938 26.613281 -20.4375 24.4375 -20.4375 C 23.132812 -20.4375 22.050781 -20.6875 21.1875 -21.1875 C 20.332031 -21.695312 19.648438 -22.273438 19.140625 -22.921875 C 18.640625 -23.578125 18.28125 -24.15625 18.0625 -24.65625 C 17.851562 -25.164062 17.75 -25.421875 17.75 -25.421875 C 17.75 -25.421875 17.882812 -25.515625 18.15625 -25.703125 C 18.4375 -25.898438 18.707031 -26.242188 18.96875 -26.734375 C 19.226562 -27.222656 19.359375 -27.90625 19.359375 -28.78125 C 19.359375 -29.726562 19.039062 -30.535156 18.40625 -31.203125 C 17.78125 -31.867188 16.894531 -32.203125 15.75 -32.203125 C 14.457031 -32.203125 13.441406 -31.679688 12.703125 -30.640625 C 11.972656 -29.597656 11.609375 -28.394531 11.609375 -27.03125 C 11.609375 -25.851562 11.898438 -24.84375 12.484375 -24 C 13.066406 -23.15625 13.820312 -22.4375 14.75 -21.84375 C 15.675781 -21.257812 16.664062 -20.75 17.71875 -20.3125 C 18.78125 -19.875 19.773438 -19.453125 20.703125 -19.046875 C 21.628906 -18.640625 22.382812 -18.222656 22.96875 -17.796875 C 23.5625 -17.378906 23.859375 -16.878906 23.859375 -16.296875 C 23.859375 -15.609375 23.601562 -15.078125 23.09375 -14.703125 C 22.59375 -14.328125 21.9375 -14.023438 21.125 -13.796875 C 20.3125 -13.578125 19.445312 -13.359375 18.53125 -13.140625 C 17.625 -12.929688 16.765625 -12.644531 15.953125 -12.28125 C 15.140625 -11.925781 14.476562 -11.441406 13.96875 -10.828125 C 13.46875 -10.210938 13.21875 -9.382812 13.21875 -8.34375 C 13.21875 -7.53125 13.296875 -6.59375 13.453125 -5.53125 C 13.617188 -4.476562 13.785156 -3.453125 13.953125 -2.453125 C 14.117188 -1.460938 14.203125 -0.644531 14.203125 0 Z M 14.203125 0 "/></g></g></g><g fill="#13084b" fill-opacity="1"><g transform="translate(118.671624, 288.627139)"><g><path d="M 14.484375 0 C 12.273438 0 10.429688 -0.390625 8.953125 -1.171875 C 7.472656 -1.953125 6.285156 -3.015625 5.390625 -4.359375 C 4.492188 -5.710938 3.816406 -7.226562 3.359375 -8.90625 C 2.910156 -10.582031 2.613281 -12.3125 2.46875 -14.09375 C 2.320312 -15.882812 2.269531 -17.632812 2.3125 -19.34375 C 2.363281 -21.050781 2.4375 -22.59375 2.53125 -23.96875 C 2.632812 -25.351562 2.6875 -26.46875 2.6875 -27.3125 C 2.6875 -28.71875 2.484375 -29.734375 2.078125 -30.359375 C 1.671875 -30.992188 1.46875 -31.3125 1.46875 -31.3125 C 1.46875 -31.3125 1.523438 -31.484375 1.640625 -31.828125 C 1.753906 -32.171875 1.988281 -32.550781 2.34375 -32.96875 C 2.695312 -33.394531 3.210938 -33.78125 3.890625 -34.125 C 4.578125 -34.46875 5.507812 -34.640625 6.6875 -34.640625 C 7.6875 -34.640625 8.632812 -34.453125 9.53125 -34.078125 C 10.425781 -33.703125 11.15625 -33.023438 11.71875 -32.046875 C 12.289062 -31.066406 12.578125 -29.671875 12.578125 -27.859375 C 12.578125 -27.398438 12.550781 -26.582031 12.5 -25.40625 C 12.457031 -24.238281 12.421875 -22.863281 12.390625 -21.28125 C 12.359375 -19.707031 12.332031 -18.039062 12.3125 -16.28125 C 12.300781 -14.53125 12.332031 -12.804688 12.40625 -11.109375 C 12.488281 -9.421875 12.628906 -7.882812 12.828125 -6.5 C 13.023438 -5.125 13.300781 -4.019531 13.65625 -3.1875 C 14.019531 -2.363281 14.476562 -1.953125 15.03125 -1.953125 C 15.582031 -1.953125 16.078125 -2.40625 16.515625 -3.3125 C 16.953125 -4.226562 17.34375 -5.425781 17.6875 -6.90625 C 18.03125 -8.382812 18.320312 -9.992188 18.5625 -11.734375 C 18.800781 -13.472656 19.003906 -15.195312 19.171875 -16.90625 C 19.335938 -18.613281 19.457031 -20.15625 19.53125 -21.53125 C 19.613281 -22.914062 19.65625 -23.953125 19.65625 -24.640625 C 19.65625 -26.816406 19.457031 -28.601562 19.0625 -30 C 18.675781 -31.394531 18.28125 -32.429688 17.875 -33.109375 C 17.46875 -33.796875 17.265625 -34.140625 17.265625 -34.140625 C 17.265625 -34.140625 17.554688 -34.140625 18.140625 -34.140625 C 18.734375 -34.140625 19.457031 -34.140625 20.3125 -34.140625 C 21.175781 -34.140625 22.039062 -34.140625 22.90625 -34.140625 C 23.769531 -34.140625 24.492188 -34.140625 25.078125 -34.140625 C 25.660156 -34.140625 25.953125 -34.140625 25.953125 -34.140625 C 26.628906 -33.953125 27.1875 -33.5625 27.625 -32.96875 C 28.070312 -32.382812 28.40625 -31.710938 28.625 -30.953125 C 28.851562 -30.191406 29.023438 -29.441406 29.140625 -28.703125 C 29.253906 -27.972656 29.316406 -27.375 29.328125 -26.90625 C 29.347656 -26.4375 29.359375 -26.203125 29.359375 -26.203125 C 29.359375 -24.960938 29.328125 -23.460938 29.265625 -21.703125 C 29.203125 -19.953125 29.046875 -18.09375 28.796875 -16.125 C 28.554688 -14.15625 28.148438 -12.21875 27.578125 -10.3125 C 27.015625 -8.414062 26.242188 -6.6875 25.265625 -5.125 C 24.296875 -3.5625 23.046875 -2.316406 21.515625 -1.390625 C 19.984375 -0.460938 18.128906 0 15.953125 0 Z M 14.484375 0 "/></g></g></g><g fill="#2167ff" fill-opacity="1"><g transform="translate(151.111312, 288.247181)"><g><path d="M 14.015625 0.5 C 12.347656 0.5 10.789062 0.253906 9.34375 -0.234375 C 7.90625 -0.722656 6.628906 -1.425781 5.515625 -2.34375 C 4.410156 -3.269531 3.546875 -4.378906 2.921875 -5.671875 C 2.304688 -6.972656 2 -8.421875 2 -10.015625 C 2 -11.753906 2.304688 -13.359375 2.921875 -14.828125 C 3.546875 -16.304688 4.40625 -17.59375 5.5 -18.6875 C 6.601562 -19.789062 7.878906 -20.640625 9.328125 -21.234375 C 10.785156 -21.835938 12.347656 -22.140625 14.015625 -22.140625 C 15.859375 -22.140625 17.445312 -21.789062 18.78125 -21.09375 C 20.113281 -20.394531 21.140625 -19.507812 21.859375 -18.4375 C 22.578125 -17.375 22.9375 -16.28125 22.9375 -15.15625 C 22.9375 -14.132812 22.671875 -13.367188 22.140625 -12.859375 C 21.609375 -12.347656 20.890625 -12 19.984375 -11.8125 C 19.085938 -11.632812 18.109375 -11.546875 17.046875 -11.546875 L 2.796875 -11.546875 C 2.640625 -11.015625 2.5625 -10.453125 2.5625 -9.859375 C 2.5625 -8.367188 2.910156 -7.117188 3.609375 -6.109375 C 4.304688 -5.097656 5.222656 -4.289062 6.359375 -3.6875 C 7.492188 -3.09375 8.738281 -2.660156 10.09375 -2.390625 C 11.445312 -2.128906 12.773438 -2 14.078125 -2 C 15.367188 -2 16.488281 -2.15625 17.4375 -2.46875 C 18.394531 -2.78125 19.195312 -3.144531 19.84375 -3.5625 C 20.488281 -3.988281 20.972656 -4.351562 21.296875 -4.65625 C 21.617188 -4.96875 21.78125 -5.125 21.78125 -5.125 L 23.109375 -2.796875 C 23.109375 -2.796875 22.929688 -2.628906 22.578125 -2.296875 C 22.222656 -1.960938 21.671875 -1.578125 20.921875 -1.140625 C 20.179688 -0.710938 19.238281 -0.332031 18.09375 0 C 16.945312 0.332031 15.585938 0.5 14.015625 0.5 Z M 2.890625 -11.953125 C 4.203125 -11.953125 5.546875 -11.960938 6.921875 -11.984375 C 8.296875 -12.003906 9.519531 -12.039062 10.59375 -12.09375 C 12.875 -12.195312 14.820312 -12.398438 16.4375 -12.703125 C 18.0625 -13.003906 19.304688 -13.46875 20.171875 -14.09375 C 21.035156 -14.726562 21.46875 -15.613281 21.46875 -16.75 C 21.46875 -17.394531 21.328125 -17.988281 21.046875 -18.53125 C 20.773438 -19.070312 20.316406 -19.507812 19.671875 -19.84375 C 19.035156 -20.175781 18.148438 -20.34375 17.015625 -20.34375 C 15.304688 -20.34375 13.679688 -20.117188 12.140625 -19.671875 C 10.597656 -19.234375 9.191406 -18.625 7.921875 -17.84375 C 6.660156 -17.070312 5.59375 -16.179688 4.71875 -15.171875 C 3.851562 -14.160156 3.242188 -13.085938 2.890625 -11.953125 Z M 2.890625 -11.953125 "/></g></g></g><g fill="#2167ff" fill-opacity="1"><g transform="translate(177.546347, 288.247181)"><g><path d="M 12.8125 0 L 1 0 L 1 -0.359375 L 1.9375 -0.359375 C 2.863281 -0.359375 3.597656 -0.601562 4.140625 -1.09375 C 4.691406 -1.582031 5.082031 -2.25 5.3125 -3.09375 C 5.539062 -3.9375 5.65625 -4.878906 5.65625 -5.921875 C 5.65625 -6.992188 5.660156 -8.054688 5.671875 -9.109375 C 5.679688 -10.160156 5.6875 -11.035156 5.6875 -11.734375 C 5.6875 -12.429688 5.6875 -12.78125 5.6875 -12.78125 C 5.6875 -13.71875 5.628906 -14.582031 5.515625 -15.375 C 5.410156 -16.175781 5.171875 -16.820312 4.796875 -17.3125 C 4.421875 -17.800781 3.820312 -18.046875 3 -18.046875 L 1.203125 -18.046875 L 1.203125 -18.34375 C 2.066406 -18.34375 2.945312 -18.519531 3.84375 -18.875 C 4.738281 -19.226562 5.550781 -19.691406 6.28125 -20.265625 C 7.019531 -20.847656 7.585938 -21.472656 7.984375 -22.140625 L 8.15625 -22.140625 L 8.15625 -12.1875 C 8.425781 -13.5625 8.914062 -14.847656 9.625 -16.046875 C 10.332031 -17.242188 11.195312 -18.296875 12.21875 -19.203125 C 13.238281 -20.117188 14.347656 -20.835938 15.546875 -21.359375 C 16.742188 -21.878906 17.953125 -22.140625 19.171875 -22.140625 C 20.441406 -22.140625 21.453125 -22.0625 22.203125 -21.90625 C 22.960938 -21.75 23.507812 -21.59375 23.84375 -21.4375 C 24.175781 -21.28125 24.34375 -21.203125 24.34375 -21.203125 L 24.34375 -18.453125 C 23.300781 -18.960938 22.34375 -19.335938 21.46875 -19.578125 C 20.601562 -19.816406 19.582031 -19.9375 18.40625 -19.9375 C 16.320312 -19.9375 14.535156 -19.476562 13.046875 -18.5625 C 11.566406 -17.644531 10.410156 -16.390625 9.578125 -14.796875 C 8.742188 -13.210938 8.269531 -11.410156 8.15625 -9.390625 L 8.15625 -5.921875 C 8.15625 -4.878906 8.269531 -3.9375 8.5 -3.09375 C 8.738281 -2.25 9.128906 -1.582031 9.671875 -1.09375 C 10.210938 -0.601562 10.953125 -0.359375 11.890625 -0.359375 L 12.8125 -0.359375 Z M 12.8125 0 "/></g></g></g><g fill="#2167ff" fill-opacity="1"><g transform="translate(204.547361, 288.247181)"><g><path d="M 1 0 L 1 -0.359375 L 1.9375 -0.359375 C 2.863281 -0.359375 3.597656 -0.601562 4.140625 -1.09375 C 4.691406 -1.582031 5.082031 -2.25 5.3125 -3.09375 C 5.539062 -3.9375 5.65625 -4.878906 5.65625 -5.921875 C 5.65625 -6.992188 5.660156 -8.054688 5.671875 -9.109375 C 5.679688 -10.160156 5.6875 -11.035156 5.6875 -11.734375 C 5.6875 -12.429688 5.6875 -12.78125 5.6875 -12.78125 C 5.6875 -13.71875 5.628906 -14.582031 5.515625 -15.375 C 5.410156 -16.175781 5.171875 -16.820312 4.796875 -17.3125 C 4.421875 -17.800781 3.820312 -18.046875 3 -18.046875 L 1.203125 -18.046875 L 1.203125 -18.34375 C 2.066406 -18.34375 2.945312 -18.519531 3.84375 -18.875 C 4.738281 -19.226562 5.550781 -19.691406 6.28125 -20.265625 C 7.019531 -20.847656 7.585938 -21.472656 7.984375 -22.140625 L 8.15625 -22.140625 L 8.15625 -5.921875 C 8.15625 -4.878906 8.269531 -3.9375 8.5 -3.09375 C 8.738281 -2.25 9.128906 -1.582031 9.671875 -1.09375 C 10.210938 -0.601562 10.953125 -0.359375 11.890625 -0.359375 L 12.8125 -0.359375 L 12.8125 0 Z M 6.59375 -29.828125 L 7.265625 -29.828125 L 7.265625 -24.578125 L 6.59375 -24.578125 Z M 6.59375 -29.828125 "/></g></g></g><g fill="#2167ff" fill-opacity="1"><g transform="translate(247.532098, 288.208253)"><g><path d="M 1 0 L 1 -0.359375 L 1.9375 -0.359375 C 2.863281 -0.359375 3.597656 -0.601562 4.140625 -1.09375 C 4.691406 -1.582031 5.082031 -2.25 5.3125 -3.09375 C 5.539062 -3.9375 5.65625 -4.878906 5.65625 -5.921875 C 5.65625 -6.992188 5.660156 -8.054688 5.671875 -9.109375 C 5.679688 -10.160156 5.6875 -11.035156 5.6875 -11.734375 C 5.6875 -12.429688 5.6875 -12.78125 5.6875 -12.78125 C 5.6875 -13.71875 5.628906 -14.582031 5.515625 -15.375 C 5.410156 -16.175781 5.171875 -16.820312 4.796875 -17.3125 C 4.421875 -17.800781 3.820312 -18.046875 3 -18.046875 L 1.203125 -18.046875 L 1.203125 -18.34375 C 2.066406 -18.34375 2.945312 -18.519531 3.84375 -18.875 C 4.738281 -19.226562 5.550781 -19.691406 6.28125 -20.265625 C 7.019531 -20.847656 7.585938 -21.472656 7.984375 -22.140625 L 8.15625 -22.140625 L 8.15625 -5.921875 C 8.15625 -4.878906 8.269531 -3.9375 8.5 -3.09375 C 8.738281 -2.25 9.128906 -1.582031 9.671875 -1.09375 C 10.210938 -0.601562 10.953125 -0.359375 11.890625 -0.359375 L 12.8125 -0.359375 L 12.8125 0 Z M 6.59375 -29.828125 L 7.265625 -29.828125 L 7.265625 -24.578125 L 6.59375 -24.578125 Z M 6.59375 -29.828125 "/></g></g></g></svg>