<?xml version="1.0" standalone="no"?>
<!DOCTYPE svg PUBLIC "-//W3C//DTD SVG 1.1//EN" "http://www.w3.org/Graphics/SVG/1.1/DTD/svg11.dtd">
<svg xmlns="http://www.w3.org/2000/svg" xmlns:xlink="http://www.w3.org/1999/xlink" width="375" zoomAndPan="magnify" viewBox="0 0 375 374.999991" height="375" preserveAspectRatio="xMidYMid meet" version="1.0"><defs><clipPath id="cbdd58fdf1"><path d="M 120 126.667969 L 256.988281 126.667969 L 256.988281 158 L 120 158 Z M 120 126.667969 " clip-rule="nonzero"/></clipPath><clipPath id="ca18d6a1f1"><path d="M 160 160 L 238 160 L 238 248.167969 L 160 248.167969 Z M 160 160 " clip-rule="nonzero"/></clipPath></defs><path fill="#13084b" d="M 187.972656 182.21875 L 200.304688 160.441406 L 149.59375 160.441406 C 144.261719 160.441406 137.671875 162.074219 140.96875 169.480469 L 153.296875 190.847656 C 153.707031 183.851562 157.816406 182.21875 163.992188 182.21875 Z M 187.972656 182.21875 " fill-opacity="1" fill-rule="nonzero"/><g clip-path="url(#cbdd58fdf1)"><path fill="#13084b" d="M 129.753906 126.71875 C 123.164062 126.71875 118.238281 130.011719 121.941406 136.570312 L 128.910156 148.492188 L 134.269531 157.964844 C 133.863281 155.488281 134.679688 153.039062 136.339844 151.378906 C 137.972656 149.746094 140.449219 148.492188 142.519531 148.492188 C 176.625 148.492188 210.347656 148.492188 244.042969 148.492188 L 256.753906 126.71875 Z M 129.753906 126.71875 " fill-opacity="1" fill-rule="nonzero"/></g><g clip-path="url(#ca18d6a1f1)"><path fill="#2167ff" d="M 186.53125 204.890625 L 180.296875 194.140625 L 167.96875 194.140625 C 161.378906 194.140625 158.113281 199.066406 161.378906 204.835938 L 161.433594 204.917969 C 166.390625 213.574219 186.53125 248.277344 186.53125 248.277344 C 203.351562 218.71875 220.199219 189.566406 237.019531 160.414062 L 212.226562 160.414062 Z M 186.53125 204.890625 " fill-opacity="1" fill-rule="nonzero"/></g></svg>