<svg width="107" height="107" viewBox="0 0 107 107" fill="none" xmlns="http://www.w3.org/2000/svg">
<path fill-rule="evenodd" clip-rule="evenodd" d="M53.5 14.3022L31.1136 45.2989L53.5 57.3533L75.8867 45.2989L53.5 14.3022ZM49.163 5.07809C51.2985 2.12128 55.7016 2.12126 57.8371 5.07809L85.4979 43.3774C87.3909 45.9989 86.5443 49.6872 83.6972 51.2205L56.0364 66.1144C54.4532 66.9673 52.5473 66.9673 50.9637 66.1144L23.303 51.2205C20.456 49.6872 19.6091 45.9989 21.5023 43.3774L49.163 5.07809Z" fill="#9A98A6"/>
<path fill-rule="evenodd" clip-rule="evenodd" d="M78.9562 60.3083C84.1248 57.7238 89.152 64.0337 85.4788 68.4943L57.6298 102.311C55.4898 104.909 51.5103 104.909 49.3703 102.311L21.5213 68.4943C17.8479 64.0337 22.8754 57.7238 28.0437 60.3083L53.5001 73.0364L78.9562 60.3083ZM71.3334 73.5625L55.8928 81.8091C54.3864 82.5621 52.6137 82.5621 51.1073 81.8091L35.6667 73.5625L53.5001 93.2995L71.3334 73.5625Z" fill="#9A98A6"/>
</svg>
