<svg width="107" height="107" viewBox="0 0 107 107" fill="none" xmlns="http://www.w3.org/2000/svg">
<g clip-path="url(#clip0_77_271)">
<path d="M53.4999 0L7.16895 26.75V80.25L53.4999 107L99.831 80.25V26.75L53.4999 0ZM48.7162 6.44229H48.7206C50.1008 7.46109 51.7711 8.0108 53.4866 8.0108C55.202 8.0108 56.8724 7.46109 58.2525 6.44229L91.8416 25.836C91.7741 26.433 91.7741 27.0357 91.8416 27.6328L58.2481 47.0265C56.8683 46.0087 55.1989 45.4596 53.4843 45.4596C51.7698 45.4596 50.1004 46.0087 48.7206 47.0265L15.1226 27.6328C15.1897 27.0372 15.1897 26.436 15.1226 25.8405L48.7162 6.44229ZM95.0694 32.9917C95.5554 33.3483 96.077 33.647 96.6254 33.8878V72.6753C95.0527 73.3613 93.7412 74.5333 92.8834 76.0193C92.0257 77.5053 91.6668 79.2272 91.8594 80.9321L58.2659 100.326C57.7822 99.9715 57.2603 99.6724 56.7099 99.4342L56.6698 60.8563C58.2426 60.1712 59.5545 59.0002 60.413 57.5151C61.2715 56.0299 61.6316 54.3087 61.4402 52.6039L95.0694 32.9917ZM11.9304 33.2057L45.524 52.5994C45.3313 54.3044 45.6902 56.0262 46.548 57.5123C47.4057 58.9983 48.7172 60.1703 50.2899 60.8563V99.6438C49.7371 99.8845 49.2199 100.188 48.734 100.544L15.1404 81.1506C15.3331 79.4456 14.9742 77.7238 14.1165 76.2377C13.2587 74.7517 11.9472 73.5797 10.3745 72.8938V34.1063C10.9273 33.8655 11.44 33.5623 11.9304 33.2057Z" fill="#9A98A6" stroke="#9A98A6" stroke-width="0.456"/>
</g>
<defs>
<clipPath id="clip0_77_271">
<rect width="107" height="107" fill="white"/>
</clipPath>
</defs>
</svg>
