<svg width="107" height="107" viewBox="0 0 107 107" fill="none" xmlns="http://www.w3.org/2000/svg">
<g clip-path="url(#clip0_77_252)">
<path d="M49.9961 0.0287941C49.766 0.0497099 49.0338 0.122915 48.3749 0.175205C33.1773 1.54519 18.942 9.74418 9.926 22.3459C4.90547 29.3527 1.69443 37.3007 0.481134 45.7193C0.0522972 48.658 0 49.526 0 53.5105C0 57.4949 0.0522972 58.3629 0.481134 61.3016C3.38886 81.3912 17.6869 98.2703 37.0787 104.524C40.5512 105.643 44.212 106.407 48.3749 106.867C49.9961 107.044 57.0039 107.044 58.6251 106.867C65.8108 106.072 71.8981 104.294 77.9019 101.23C78.8223 100.759 79.0001 100.634 78.8746 100.529C78.7909 100.466 74.8686 95.2061 70.1619 88.8477L61.6061 77.2917L50.8851 61.4271C44.986 52.7052 40.1328 45.5729 40.091 45.5729C40.0492 45.5625 40.0073 52.6111 39.9864 61.2179C39.955 76.2878 39.9446 76.8943 39.7563 77.2499C39.4844 77.7623 39.2752 77.9715 38.8359 78.2016C38.5012 78.3689 38.2083 78.4003 36.6289 78.4003H34.8195L34.3383 78.097C34.0245 77.8983 33.7944 77.6368 33.6375 77.3336L33.4179 76.863L33.4388 55.8949L33.4702 34.9163L33.7944 34.5085C33.9618 34.2889 34.3174 34.0065 34.5684 33.8705C34.9973 33.6614 35.1646 33.6405 36.9741 33.6405C39.1078 33.6405 39.4634 33.7241 40.0178 34.3307C40.1747 34.498 45.9797 43.2408 52.9247 53.7719C59.8698 64.303 69.367 78.6826 74.0319 85.7417L82.504 98.5736L82.9328 98.2912C86.7296 95.8231 90.746 92.3093 93.9257 88.649C100.693 80.8788 105.055 71.4039 106.519 61.3016C106.948 58.3629 107 57.4949 107 53.5105C107 49.526 106.948 48.658 106.519 45.7193C103.611 25.6297 89.3131 8.75068 69.9213 2.49686C66.5011 1.38832 62.8612 0.624894 58.782 0.164747C57.7779 0.0601678 50.8642 -0.0548691 49.9961 0.0287941ZM71.8981 32.3855C72.4002 32.6365 72.8081 33.1176 72.9545 33.6196C73.0382 33.8915 73.0591 39.7061 73.0382 52.8098L73.0068 71.6131L69.6912 66.5306L66.3651 61.448V47.7795C66.3651 38.9426 66.4069 33.9751 66.4697 33.7346C66.637 33.149 67.0031 32.6888 67.5052 32.4169C67.934 32.1973 68.0909 32.1764 69.733 32.1764C71.281 32.1764 71.553 32.1973 71.8981 32.3855Z" fill="#9A98A6"/>
</g>
<defs>
<clipPath id="clip0_77_252">
<rect width="107" height="107" fill="white"/>
</clipPath>
</defs>
</svg>
