<svg width="107" height="107" viewBox="0 0 107 107" fill="none" xmlns="http://www.w3.org/2000/svg">
<g clip-path="url(#clip0_77_275)">
<path fill-rule="evenodd" clip-rule="evenodd" d="M0 0H107V107H0V0ZM71.3333 42.8C63.4541 42.8 57.0667 49.1874 57.0667 57.0667C57.0667 64.9459 63.4541 71.3333 71.3333 71.3333H78.4667C82.4064 71.3333 85.6 74.5269 85.6 78.4667C85.6 82.4064 82.4064 85.6 78.4667 85.6H71.3333C67.3937 85.6 64.2 82.4064 64.2 78.4667H57.0667C57.0667 86.3461 63.4541 92.7333 71.3333 92.7333H78.4667C86.3461 92.7333 92.7333 86.3461 92.7333 78.4667C92.7333 70.5874 86.3461 64.2 78.4667 64.2H71.3333C67.3937 64.2 64.2 61.0063 64.2 57.0667C64.2 53.1271 67.3937 49.9333 71.3333 49.9333H79.6558C82.9386 49.9333 85.6 52.5948 85.6 55.8778V57.0667H92.7333V55.8778C92.7333 48.6551 86.8783 42.8 79.6558 42.8H71.3333ZM21.4 42.8H57.0667V49.9333H42.8V92.7333H35.6667V49.9333H21.4V42.8Z" fill="#9A98A6"/>
</g>
<defs>
<clipPath id="clip0_77_275">
<rect width="107" height="107" fill="white"/>
</clipPath>
</defs>
</svg>
