<svg width="280" height="151" viewBox="0 0 280 151" fill="none" xmlns="http://www.w3.org/2000/svg">
<rect x="0.000244141" y="38.5364" width="94.1886" height="148.528" fill="#9087E5"/>
<path d="M12.8439 24.0459H94.1886V38.5365H0L12.8439 24.0459Z" fill="#AEA7EC"/>
<path d="M28.4672 110.536V108.84L45.5575 90.7717C50.0584 86.0099 52.9285 81.9004 52.9285 77.6604C52.9285 73.8118 50.7759 71.3331 46.7317 71.3331C42.6222 71.3331 40.0129 73.7466 39.2954 79.8782H29.7066C30.2284 69.1152 36.7514 63.2445 47.1883 63.2445C57.4946 63.2445 63.3653 68.9848 63.3653 77.3995C63.3653 83.5963 59.7777 88.6843 54.3636 93.9027L45.5575 102.513H63.6915V110.536H28.4672Z" fill="white"/>
<rect x="185.812" y="54.5369" width="94.1886" height="148.528" fill="#9087E5"/>
<path d="M185.812 40.0461H266.3L280 54.5367H185.812L185.812 40.0461Z" fill="#AEA7EC"/>
<path d="M232.35 109.075C223.446 109.075 218.896 104.525 218.602 97.4314H225.745C226.039 100.807 227.849 103.253 232.056 103.253C236.019 103.253 237.878 101.345 237.878 98.2142C237.878 94.8875 236.019 93.1752 232.252 93.1752H229.512V87.8915H232.056C235.725 87.8915 237.389 86.2282 237.389 83.2439C237.389 80.7488 235.774 78.8898 232.545 78.8898C229.219 78.8898 227.164 80.8956 226.772 84.1734H219.777C220.168 77.7646 224.718 73.068 232.692 73.068C240.373 73.068 244.874 77.0796 244.874 82.559C244.874 86.4728 242.574 88.9189 239.101 90.142C243.162 91.0226 245.901 93.909 245.901 98.361C245.901 104.917 240.862 109.075 232.35 109.075Z" fill="white"/>
<rect x="90.1887" y="14.5364" width="99.6226" height="222.792" fill="url(#paint0_linear_0_1)"/>
<path d="M104.679 0.0458984H175.321L189.811 14.5365H90.1887L104.679 0.0458984Z" fill="#CDC9F3"/>
<path d="M136.943 104.536V59.283L125.12 67.0291V55.7769L138.574 46.2369H150.152V104.536H136.943Z" fill="white"/>
<defs>
<linearGradient id="paint0_linear_0_1" x1="140" y1="14.5364" x2="140" y2="171.215" gradientUnits="userSpaceOnUse">
<stop stop-color="#9087E5"/>
<stop offset="1" stop-color="#CDC9F3"/>
</linearGradient>
</defs>
</svg>
