<svg width="24" height="25" viewBox="0 0 24 25" fill="none" xmlns="http://www.w3.org/2000/svg">
<path d="M11.9982 2.47302C8.99043 2.47302 7.04018 4.49201 4.73371 5.22792C3.79589 5.52715 3.32697 5.67677 3.1372 5.88767C2.94743 6.09858 2.89186 6.40677 2.78072 7.02316C1.59143 13.619 4.1909 19.717 10.3903 22.0905C11.0564 22.3455 11.3894 22.473 12.0015 22.473C12.6135 22.473 12.9466 22.3455 13.6126 22.0905C19.8116 19.717 22.4086 13.619 21.219 7.02315C21.1078 6.40666 21.0522 6.09842 20.8624 5.88751C20.6726 5.6766 20.2037 5.52707 19.2659 5.22801C16.9585 4.49217 15.0061 2.47302 11.9982 2.47302Z" stroke="white" stroke-width="1.5" stroke-linecap="round" stroke-linejoin="round"/>
<path d="M9 13.473C9 13.473 10 13.473 11 15.473C11 15.473 14.1765 10.473 17 9.47302" stroke="white" stroke-width="1.5" stroke-linecap="round" stroke-linejoin="round"/>
</svg>
