<svg width="48" height="48" viewBox="0 0 48 48" fill="none" xmlns="http://www.w3.org/2000/svg">
<circle cx="24" cy="24" r="24" fill="#C9F2E9"/>
<mask id="mask0_149_1018" style="mask-type:alpha" maskUnits="userSpaceOnUse" x="0" y="0" width="48" height="48">
<circle cx="24" cy="24" r="24" fill="#C4C4C4"/>
</mask>
<g mask="url(#mask0_149_1018)">
<path fill-rule="evenodd" clip-rule="evenodd" d="M23.9999 12.4255C19.18 12.4255 15.2727 16.3329 15.2727 21.1528V22.0411C14.3881 22.1894 13.7141 22.9587 13.7141 23.8854V26.0226C13.7141 26.9681 14.4157 27.7497 15.3266 27.8752C15.6672 30.9358 17.5907 33.5187 20.2598 34.7866V37.6555C13.6587 38.0108 8.41553 43.4759 8.41553 50.1656H39.5843C39.5843 43.476 34.3413 38.0109 27.7403 37.6555V34.7865C30.4093 33.5185 32.3326 30.9357 32.6732 27.8752C33.5842 27.7497 34.2858 26.9681 34.2858 26.0226V23.8854C34.2858 22.9587 33.6117 22.1894 32.7272 22.0411V21.1528C32.7272 16.3329 28.8199 12.4255 23.9999 12.4255Z" fill="#D0C6AC"/>
<mask id="mask1_149_1018" style="mask-type:luminance" maskUnits="userSpaceOnUse" x="8" y="12" width="32" height="39">
<path fill-rule="evenodd" clip-rule="evenodd" d="M23.9999 12.4255C19.18 12.4255 15.2727 16.3329 15.2727 21.1528V22.0411C14.3881 22.1894 13.7141 22.9587 13.7141 23.8854V26.0226C13.7141 26.9681 14.4157 27.7497 15.3266 27.8752C15.6672 30.9358 17.5907 33.5187 20.2598 34.7866V37.6555C13.6587 38.0108 8.41553 43.4759 8.41553 50.1656H39.5843C39.5843 43.476 34.3413 38.0109 27.7403 37.6555V34.7865C30.4093 33.5185 32.3326 30.9357 32.6732 27.8752C33.5842 27.7497 34.2858 26.9681 34.2858 26.0226V23.8854C34.2858 22.9587 33.6117 22.1894 32.7272 22.0411V21.1528C32.7272 16.3329 28.8199 12.4255 23.9999 12.4255Z" fill="white"/>
</mask>
<g mask="url(#mask1_149_1018)">
<rect x="3.42847" y="12.4255" width="41.1428" height="37.74" fill="#C9824B"/>
<path fill-rule="evenodd" clip-rule="evenodd" d="M15.2729 26.8989V28.1363C15.2729 32.9562 19.1803 36.8636 24.0002 36.8636C28.8201 36.8636 32.7275 32.9562 32.7275 28.1363V26.8989C32.7275 31.7189 28.8201 35.6262 24.0002 35.6262C19.1803 35.6262 15.2729 31.7189 15.2729 26.8989Z" fill="black" fill-opacity="0.1"/>
</g>
<path fill-rule="evenodd" clip-rule="evenodd" d="M24.0775 41.1678C26.9608 41.1678 29.2982 39.6804 29.2982 37.8455C29.2982 37.845 29.2982 37.8444 29.2982 37.8439C35.1469 38.8976 39.5841 44.0134 39.5841 50.1655H8.41528C8.41528 43.9589 12.9314 38.8071 18.8569 37.8169C18.8567 37.8264 18.8567 37.8359 18.8567 37.8455C18.8567 39.6804 21.1941 41.1678 24.0775 41.1678Z" fill="#E6E6E6"/>
<mask id="mask2_149_1018" style="mask-type:luminance" maskUnits="userSpaceOnUse" x="8" y="37" width="32" height="14">
<path fill-rule="evenodd" clip-rule="evenodd" d="M24.0775 41.1678C26.9608 41.1678 29.2982 39.6804 29.2982 37.8455C29.2982 37.845 29.2982 37.8444 29.2982 37.8439C35.1469 38.8976 39.5841 44.0134 39.5841 50.1655H8.41528C8.41528 43.9589 12.9314 38.8071 18.8569 37.8169C18.8567 37.8264 18.8567 37.8359 18.8567 37.8455C18.8567 39.6804 21.1941 41.1678 24.0775 41.1678Z" fill="white"/>
</mask>
<g mask="url(#mask2_149_1018)">
<rect x="3.42822" y="33.1514" width="41.1428" height="17.0139" fill="#C2FF5F"/>
<g opacity="0.6">
<ellipse cx="24.0775" cy="38.0774" rx="6.17689" ry="4.16282" fill="black" fill-opacity="0.16"/>
</g>
</g>
<path d="M21.8186 30.0579C21.8186 30.8887 22.7783 31.4499 24.0004 31.4499C25.2225 31.4499 26.1822 30.8887 26.1822 30.0579C26.1822 29.887 26.0342 29.7485 25.8705 29.7485C25.6691 29.7485 25.5792 29.8885 25.5589 30.0579C25.3652 30.5123 24.8861 30.7874 24.0004 30.8312C23.1147 30.7874 22.6356 30.5123 22.442 30.0579C22.4217 29.8885 22.3318 29.7485 22.1303 29.7485C21.9666 29.7485 21.8186 29.887 21.8186 30.0579Z" fill="#0C092A"/>
<path fill-rule="evenodd" clip-rule="evenodd" d="M22.1299 26.9644C22.1299 27.6477 22.9672 28.2017 24 28.2017C25.0329 28.2017 25.8701 27.6477 25.8701 26.9644" fill="black" fill-opacity="0.16"/>
<ellipse cx="19.948" cy="24.1802" rx="0.935064" ry="0.928033" fill="#0C092A"/>
<ellipse cx="28.052" cy="24.1802" rx="0.935064" ry="0.928033" fill="#0C092A"/>
<path d="M17.7622 22.1893C17.9952 20.7163 19.9569 19.7116 21.3759 20.36C21.5323 20.4315 21.7174 20.3636 21.7894 20.2084C21.8614 20.0532 21.793 19.8695 21.6366 19.798C19.8463 18.9799 17.4443 20.2102 17.1464 22.0933C17.1197 22.2621 17.2359 22.4204 17.406 22.4469C17.576 22.4734 17.7355 22.3581 17.7622 22.1893Z" fill="#0C092A"/>
<path d="M30.237 22.1893C30.004 20.7163 28.0423 19.7116 26.6234 20.36C26.467 20.4315 26.2819 20.3636 26.2099 20.2084C26.1379 20.0532 26.2063 19.8695 26.3627 19.798C28.1529 18.9799 30.555 20.2102 30.8529 22.0933C30.8796 22.2621 30.7634 22.4204 30.5933 22.4469C30.4232 22.4734 30.2637 22.3581 30.237 22.1893Z" fill="#0C092A"/>
<mask id="mask3_149_1018" style="mask-type:luminance" maskUnits="userSpaceOnUse" x="3" y="6" width="42" height="45">
<rect x="3.42847" y="6.85718" width="41.1428" height="43.3082" fill="white"/>
</mask>
<g mask="url(#mask3_149_1018)">
<path fill-rule="evenodd" clip-rule="evenodd" d="M23.9999 28.3469C23.6101 27.831 22.0881 27.6124 20.9957 27.8096C19.4913 28.0813 18.8537 29.7125 19.0468 30.0082C19.167 30.1925 19.4335 30.1308 19.7106 30.0668C19.8375 30.0375 19.9665 30.0076 20.0848 30.0006C20.3164 29.9869 20.6053 30.0344 20.9335 30.0883C21.7098 30.2157 22.7056 30.3792 23.6807 29.8551C23.8071 29.7872 23.9155 29.688 23.9998 29.5691C24.0841 29.6881 24.1926 29.7872 24.319 29.8552C25.2941 30.3793 26.2899 30.2158 27.0662 30.0883C27.3944 30.0344 27.6833 29.987 27.9149 30.0007C28.0332 30.0077 28.1622 30.0375 28.2891 30.0668C28.5662 30.1309 28.8327 30.1925 28.9529 30.0083C29.146 29.7125 28.5084 28.0813 27.0039 27.8097C25.9116 27.6125 24.3897 27.831 23.9999 28.3469Z" fill="#0C092A"/>
<mask id="mask4_149_1018" style="mask-type:luminance" maskUnits="userSpaceOnUse" x="19" y="27" width="10" height="4">
<path fill-rule="evenodd" clip-rule="evenodd" d="M23.9999 28.3469C23.6101 27.831 22.0881 27.6124 20.9957 27.8096C19.4913 28.0813 18.8537 29.7125 19.0468 30.0082C19.167 30.1925 19.4335 30.1308 19.7106 30.0668C19.8375 30.0375 19.9665 30.0076 20.0848 30.0006C20.3164 29.9869 20.6053 30.0344 20.9335 30.0883C21.7098 30.2157 22.7056 30.3792 23.6807 29.8551C23.8071 29.7872 23.9155 29.688 23.9998 29.5691C24.0841 29.6881 24.1926 29.7872 24.319 29.8552C25.2941 30.3793 26.2899 30.2158 27.0662 30.0883C27.3944 30.0344 27.6833 29.987 27.9149 30.0007C28.0332 30.0077 28.1622 30.0375 28.2891 30.0668C28.5662 30.1309 28.8327 30.1925 28.9529 30.0083C29.146 29.7125 28.5084 28.0813 27.0039 27.8097C25.9116 27.6125 24.3897 27.831 23.9999 28.3469Z" fill="white"/>
</mask>
<g mask="url(#mask4_149_1018)">
<rect x="10.9092" y="17.9934" width="26.1818" height="23.5102" fill="#0C092A"/>
</g>
<path fill-rule="evenodd" clip-rule="evenodd" d="M32.5262 15.538C32.6651 16.0402 32.8632 17.3863 32.5149 17.8321C32.3986 17.981 31.6046 17.5632 31.2735 17.3816C31.0798 17.2754 30.897 17.1743 30.723 17.078C28.3985 15.7917 27.6474 15.376 23.5708 15.4349C19.1891 15.4982 16.1872 17.5357 16.0183 17.7441C15.9009 17.8891 15.7509 18.2763 15.6276 19.3547C15.5885 19.6961 15.5776 20.1233 15.5668 20.5476C15.5434 21.4637 15.5203 22.3666 15.2152 22.365C14.8351 22.363 14.7524 18.686 14.9165 17.2273C14.9226 17.1728 14.933 17.1078 14.9442 17.0377C14.979 16.82 15.0217 16.5537 14.9685 16.4013C14.9445 16.3327 14.8842 16.2909 14.8224 16.248C14.7257 16.181 14.6253 16.1114 14.6546 15.9325C14.6876 15.7306 14.8247 15.7115 14.9606 15.6926C15.0493 15.6803 15.1375 15.668 15.1958 15.605C15.3716 15.415 15.2664 15.3161 15.1463 15.2032C15.0753 15.1365 14.9991 15.0649 14.9725 14.9667C14.8737 14.6015 15.132 14.488 15.3912 14.3742C15.411 14.3656 15.4308 14.3569 15.4504 14.3481C15.5575 14.3001 15.6223 14.2836 15.6719 14.271C15.7642 14.2475 15.8039 14.2374 15.9657 14.0625C15.6335 13.8209 15.5134 13.4916 15.9682 13.315C16.0553 13.2812 16.2053 13.2828 16.3577 13.2844C16.5432 13.2864 16.7322 13.2884 16.8153 13.2266C16.8385 13.2093 16.8534 13.1444 16.8667 13.0867C16.8761 13.0458 16.8847 13.0085 16.8947 12.9942C17.1051 12.6955 17.0872 12.4685 17.0628 12.1606C17.0592 12.1148 17.0555 12.0673 17.0523 12.0174C17.0321 11.7021 17.0348 11.4127 17.4151 11.3812C17.5717 11.3683 17.7103 11.4417 17.8468 11.514C17.9316 11.5589 18.0156 11.6034 18.1026 11.6266C18.239 11.6629 18.2739 11.6939 18.3085 11.6935C18.3379 11.6931 18.3669 11.6699 18.4578 11.6079C18.6428 11.4814 18.662 11.2909 18.6813 11.0989C18.6983 10.9309 18.7153 10.7616 18.8437 10.633C19.0892 10.387 19.2797 10.5355 19.4663 10.6809C19.5667 10.7591 19.6658 10.8364 19.7718 10.851C20.1686 10.9059 20.2493 10.6866 20.3363 10.4505C20.3936 10.295 20.4535 10.1322 20.6082 10.0357C20.8933 9.858 21.0207 10.0284 21.1435 10.1925C21.2212 10.2964 21.297 10.3978 21.4097 10.4066C21.5662 10.4188 21.8003 10.2374 22.008 10.0766C22.1349 9.97833 22.2519 9.88772 22.3352 9.85361C22.6888 9.70882 22.9456 9.86354 23.2055 10.0202C23.4249 10.1524 23.6466 10.2859 23.9305 10.242C23.977 10.2349 24.0199 10.2278 24.06 10.2213C24.4089 10.1641 24.5443 10.1419 24.9087 10.37C25.1721 10.5348 25.3014 10.5108 25.4913 10.4757C25.5857 10.4582 25.6952 10.438 25.8435 10.4368C26.0167 10.4355 26.153 10.5137 26.2843 10.589C26.3924 10.651 26.4972 10.7111 26.6163 10.7234C26.6823 10.7303 26.7468 10.6995 26.8125 10.6682C26.878 10.637 26.9447 10.6053 27.0153 10.6095C27.3001 10.6267 27.4343 10.8405 27.5692 11.0555C27.6734 11.2214 27.7779 11.388 27.9525 11.4657C28.205 11.578 28.488 11.5041 28.7585 11.4335C28.8804 11.4017 28.9998 11.3705 29.1128 11.3574C29.7299 11.2855 29.6235 11.6617 29.5101 12.0625C29.4606 12.2377 29.4097 12.4176 29.4173 12.5668C29.5962 12.6082 29.7765 12.5432 29.9566 12.4782C30.1268 12.4168 30.2969 12.3554 30.4653 12.3843C30.9948 12.475 30.8165 13.0063 30.6899 13.3835C30.686 13.3949 30.6822 13.4063 30.6785 13.4175C30.7774 13.4157 30.9181 13.3859 31.0762 13.3523C31.5223 13.2577 32.1077 13.1336 32.2886 13.5269C32.3633 13.6895 32.2908 13.8842 32.2201 14.074C32.1713 14.205 32.1234 14.3336 32.1254 14.4476C32.1295 14.6837 32.2361 14.8954 32.343 15.1074C32.414 15.2483 32.4851 15.3894 32.5262 15.538ZM32.3158 18.242C32.3555 18.2694 32.3823 18.2879 32.3892 18.2917C32.663 18.4446 32.8798 19.9775 32.8903 20.5637C32.8969 20.9254 32.9028 22.3047 32.5173 22.1855C32.4 22.1492 32.2208 21.419 32.1954 20.9916C32.1699 20.5642 31.9253 19.1101 31.5499 18.4411C31.5294 18.4046 31.4998 18.3614 31.468 18.3152C31.3669 18.1679 31.244 17.9889 31.3247 17.8905C31.4373 17.7534 31.547 17.8015 31.6769 17.8585C31.6989 17.8682 31.7215 17.8781 31.7448 17.8874C31.8801 17.9415 32.1766 18.146 32.3158 18.242Z" fill="#2E3257"/>
<mask id="mask5_149_1018" style="mask-type:luminance" maskUnits="userSpaceOnUse" x="14" y="9" width="19" height="14">
<path fill-rule="evenodd" clip-rule="evenodd" d="M32.5262 15.538C32.6651 16.0402 32.8632 17.3863 32.5149 17.8321C32.3986 17.981 31.6046 17.5632 31.2735 17.3816C31.0798 17.2754 30.897 17.1743 30.723 17.078C28.3985 15.7917 27.6474 15.376 23.5708 15.4349C19.1891 15.4982 16.1872 17.5357 16.0183 17.7441C15.9009 17.8891 15.7509 18.2763 15.6276 19.3547C15.5885 19.6961 15.5776 20.1233 15.5668 20.5476C15.5434 21.4637 15.5203 22.3666 15.2152 22.365C14.8351 22.363 14.7524 18.686 14.9165 17.2273C14.9226 17.1728 14.933 17.1078 14.9442 17.0377C14.979 16.82 15.0217 16.5537 14.9685 16.4013C14.9445 16.3327 14.8842 16.2909 14.8224 16.248C14.7257 16.181 14.6253 16.1114 14.6546 15.9325C14.6876 15.7306 14.8247 15.7115 14.9606 15.6926C15.0493 15.6803 15.1375 15.668 15.1958 15.605C15.3716 15.415 15.2664 15.3161 15.1463 15.2032C15.0753 15.1365 14.9991 15.0649 14.9725 14.9667C14.8737 14.6015 15.132 14.488 15.3912 14.3742C15.411 14.3656 15.4308 14.3569 15.4504 14.3481C15.5575 14.3001 15.6223 14.2836 15.6719 14.271C15.7642 14.2475 15.8039 14.2374 15.9657 14.0625C15.6335 13.8209 15.5134 13.4916 15.9682 13.315C16.0553 13.2812 16.2053 13.2828 16.3577 13.2844C16.5432 13.2864 16.7322 13.2884 16.8153 13.2266C16.8385 13.2093 16.8534 13.1444 16.8667 13.0867C16.8761 13.0458 16.8847 13.0085 16.8947 12.9942C17.1051 12.6955 17.0872 12.4685 17.0628 12.1606C17.0592 12.1148 17.0555 12.0673 17.0523 12.0174C17.0321 11.7021 17.0348 11.4127 17.4151 11.3812C17.5717 11.3683 17.7103 11.4417 17.8468 11.514C17.9316 11.5589 18.0156 11.6034 18.1026 11.6266C18.239 11.6629 18.2739 11.6939 18.3085 11.6935C18.3379 11.6931 18.3669 11.6699 18.4578 11.6079C18.6428 11.4814 18.662 11.2909 18.6813 11.0989C18.6983 10.9309 18.7153 10.7616 18.8437 10.633C19.0892 10.387 19.2797 10.5355 19.4663 10.6809C19.5667 10.7591 19.6658 10.8364 19.7718 10.851C20.1686 10.9059 20.2493 10.6866 20.3363 10.4505C20.3936 10.295 20.4535 10.1322 20.6082 10.0357C20.8933 9.858 21.0207 10.0284 21.1435 10.1925C21.2212 10.2964 21.297 10.3978 21.4097 10.4066C21.5662 10.4188 21.8003 10.2374 22.008 10.0766C22.1349 9.97833 22.2519 9.88772 22.3352 9.85361C22.6888 9.70882 22.9456 9.86354 23.2055 10.0202C23.4249 10.1524 23.6466 10.2859 23.9305 10.242C23.977 10.2349 24.0199 10.2278 24.06 10.2213C24.4089 10.1641 24.5443 10.1419 24.9087 10.37C25.1721 10.5348 25.3014 10.5108 25.4913 10.4757C25.5857 10.4582 25.6952 10.438 25.8435 10.4368C26.0167 10.4355 26.153 10.5137 26.2843 10.589C26.3924 10.651 26.4972 10.7111 26.6163 10.7234C26.6823 10.7303 26.7468 10.6995 26.8125 10.6682C26.878 10.637 26.9447 10.6053 27.0153 10.6095C27.3001 10.6267 27.4343 10.8405 27.5692 11.0555C27.6734 11.2214 27.7779 11.388 27.9525 11.4657C28.205 11.578 28.488 11.5041 28.7585 11.4335C28.8804 11.4017 28.9998 11.3705 29.1128 11.3574C29.7299 11.2855 29.6235 11.6617 29.5101 12.0625C29.4606 12.2377 29.4097 12.4176 29.4173 12.5668C29.5962 12.6082 29.7765 12.5432 29.9566 12.4782C30.1268 12.4168 30.2969 12.3554 30.4653 12.3843C30.9948 12.475 30.8165 13.0063 30.6899 13.3835C30.686 13.3949 30.6822 13.4063 30.6785 13.4175C30.7774 13.4157 30.9181 13.3859 31.0762 13.3523C31.5223 13.2577 32.1077 13.1336 32.2886 13.5269C32.3633 13.6895 32.2908 13.8842 32.2201 14.074C32.1713 14.205 32.1234 14.3336 32.1254 14.4476C32.1295 14.6837 32.2361 14.8954 32.343 15.1074C32.414 15.2483 32.4851 15.3894 32.5262 15.538ZM32.3158 18.242C32.3555 18.2694 32.3823 18.2879 32.3892 18.2917C32.663 18.4446 32.8798 19.9775 32.8903 20.5637C32.8969 20.9254 32.9028 22.3047 32.5173 22.1855C32.4 22.1492 32.2208 21.419 32.1954 20.9916C32.1699 20.5642 31.9253 19.1101 31.5499 18.4411C31.5294 18.4046 31.4998 18.3614 31.468 18.3152C31.3669 18.1679 31.244 17.9889 31.3247 17.8905C31.4373 17.7534 31.547 17.8015 31.6769 17.8585C31.6989 17.8682 31.7215 17.8781 31.7448 17.8874C31.8801 17.9415 32.1766 18.146 32.3158 18.242Z" fill="white"/>
</mask>
<g mask="url(#mask5_149_1018)">
<rect x="3.42847" y="6.85718" width="41.1428" height="43.3082" fill="#0C092A"/>
</g>
</g>
</g>
</svg>
