<svg width="49" height="48" viewBox="0 0 49 48" fill="none" xmlns="http://www.w3.org/2000/svg">
<circle cx="24.0942" cy="24" r="24" fill="#FFD6DD"/>
<mask id="mask0_149_808" style="mask-type:alpha" maskUnits="userSpaceOnUse" x="0" y="0" width="49" height="48">
<circle cx="24.0942" cy="24" r="24" fill="#C4C4C4"/>
</mask>
<g mask="url(#mask0_149_808)">
<path fill-rule="evenodd" clip-rule="evenodd" d="M24.0942 12.4253C19.2742 12.4253 15.3669 16.3326 15.3669 21.1526V22.0409C14.4824 22.1893 13.8085 22.9585 13.8085 23.8851V26.0224C13.8085 26.9678 14.51 27.7494 15.4209 27.8749C15.7615 30.9356 17.6849 33.5184 20.3539 34.7863V37.6553C13.7529 38.0106 8.50977 43.4757 8.50977 50.1654H39.6786C39.6786 43.4757 34.4355 38.0106 27.8344 37.6553V34.7863C30.5035 33.5184 32.4269 30.9356 32.7675 27.8749C33.6784 27.7494 34.3799 26.9678 34.3799 26.0224V23.8851C34.3799 22.9585 33.7059 22.1893 32.8215 22.0409V21.1526C32.8215 16.3326 28.9141 12.4253 24.0942 12.4253Z" fill="#D0C6AC"/>
<mask id="mask1_149_808" style="mask-type:luminance" maskUnits="userSpaceOnUse" x="8" y="12" width="32" height="39">
<path fill-rule="evenodd" clip-rule="evenodd" d="M24.0942 12.4253C19.2742 12.4253 15.3669 16.3326 15.3669 21.1526V22.0409C14.4824 22.1893 13.8085 22.9585 13.8085 23.8851V26.0224C13.8085 26.9678 14.51 27.7494 15.4209 27.8749C15.7615 30.9356 17.6849 33.5184 20.3539 34.7863V37.6553C13.7529 38.0106 8.50977 43.4757 8.50977 50.1654H39.6786C39.6786 43.4757 34.4355 38.0106 27.8344 37.6553V34.7863C30.5035 33.5184 32.4269 30.9356 32.7675 27.8749C33.6784 27.7494 34.3799 26.9678 34.3799 26.0224V23.8851C34.3799 22.9585 33.7059 22.1893 32.8215 22.0409V21.1526C32.8215 16.3326 28.9141 12.4253 24.0942 12.4253Z" fill="white"/>
</mask>
<g mask="url(#mask1_149_808)">
<rect width="41.1429" height="37.7401" transform="translate(3.52271 12.4253)" fill="#FFCCD7"/>
<rect x="3.52271" y="12.4253" width="41.1429" height="37.7401" fill="#FFCCD7"/>
<path fill-rule="evenodd" clip-rule="evenodd" d="M15.3669 26.8989V28.1363C15.3669 32.9563 19.2743 36.8636 24.0942 36.8636C28.9142 36.8636 32.8215 32.9563 32.8215 28.1363V26.8989C32.8215 31.7189 28.9142 35.6262 24.0942 35.6262C19.2743 35.6262 15.3669 31.7189 15.3669 26.8989Z" fill="black" fill-opacity="0.1"/>
</g>
<path fill-rule="evenodd" clip-rule="evenodd" d="M24.1721 43.3334C28.4326 43.3334 31.8864 41.2919 31.8864 38.7736C31.8864 38.7039 31.8837 38.6345 31.8785 38.5655C36.4536 40.4291 39.6786 44.9207 39.6786 50.1656H8.50977C8.50977 44.8592 11.8108 40.3238 16.4714 38.501C16.4624 38.5912 16.4578 38.6821 16.4578 38.7736C16.4578 41.2919 19.9116 43.3334 24.1721 43.3334Z" fill="#6223A9"/>
<mask id="mask2_149_808" style="mask-type:luminance" maskUnits="userSpaceOnUse" x="8" y="38" width="32" height="13">
<path fill-rule="evenodd" clip-rule="evenodd" d="M24.1721 43.3334C28.4326 43.3334 31.8864 41.2919 31.8864 38.7736C31.8864 38.7039 31.8837 38.6345 31.8785 38.5655C36.4536 40.4291 39.6786 44.9207 39.6786 50.1656H8.50977C8.50977 44.8592 11.8108 40.3238 16.4714 38.501C16.4624 38.5912 16.4578 38.6821 16.4578 38.7736C16.4578 41.2919 19.9116 43.3334 24.1721 43.3334Z" fill="white"/>
</mask>
<g mask="url(#mask2_149_808)">
<rect x="3.52271" y="33.1516" width="41.1429" height="17.014" fill="#6223A9"/>
</g>
<path fill-rule="evenodd" clip-rule="evenodd" d="M21.9126 29.9033C21.9126 31.0992 22.8894 32.0687 24.0944 32.0687C25.2994 32.0687 26.2762 31.0992 26.2762 29.9033" fill="#0C092A"/>
<g opacity="0.3">
<path fill-rule="evenodd" clip-rule="evenodd" d="M22.2239 26.9648C22.2239 27.6482 23.0612 28.2022 24.094 28.2022C25.1269 28.2022 25.9641 27.6482 25.9641 26.9648" fill="#0C092A"/>
</g>
<ellipse cx="20.0422" cy="24.1805" rx="0.935065" ry="0.928034" fill="#0C092A"/>
<ellipse cx="28.1462" cy="24.1805" rx="0.935065" ry="0.928034" fill="#0C092A"/>
<path d="M17.8028 22.194C18.413 21.342 20.0856 20.8642 21.5264 21.2154C21.6936 21.2561 21.8624 21.1546 21.9034 20.9887C21.9445 20.8228 21.8422 20.6553 21.6751 20.6145C20.0018 20.2067 18.0649 20.76 17.2947 21.8356C17.195 21.9749 17.2279 22.168 17.3682 22.267C17.5085 22.366 17.7031 22.3333 17.8028 22.194Z" fill="#0C092A"/>
<path d="M30.3856 22.194C29.7755 21.342 28.1029 20.8642 26.6621 21.2154C26.4949 21.2561 26.3261 21.1546 26.2851 20.9887C26.244 20.8228 26.3462 20.6553 26.5134 20.6145C28.1867 20.2067 30.1235 20.76 30.8938 21.8356C30.9935 21.9749 30.9606 22.168 30.8203 22.267C30.6799 22.366 30.4854 22.3333 30.3856 22.194Z" fill="#0C092A"/>
<mask id="mask3_149_808" style="mask-type:luminance" maskUnits="userSpaceOnUse" x="3" y="6" width="42" height="45">
<rect x="3.52271" y="6.85718" width="41.1429" height="43.3083" fill="white"/>
</mask>
<g mask="url(#mask3_149_808)">
<path fill-rule="evenodd" clip-rule="evenodd" d="M9.60064 29.2846C9.50446 24.5151 14.014 14.559 15.6786 12.58C16.9133 11.112 20.3064 9.88106 24.0942 9.95056C27.8819 10.0201 31.3973 10.8495 32.6656 12.4253C34.5862 14.8115 38.5672 23.8832 38.5877 29.2846C38.6022 33.1205 37.1013 36.9656 35.0033 37.1729C33.8187 37.2899 32.314 37.138 30.506 36.9555L30.5059 36.9555L30.5058 36.9555H30.5058C29.6783 36.8719 28.7873 36.782 27.8344 36.7085V34.7863C30.7829 33.3856 32.8214 30.3803 32.8214 26.8989V22.5662C31.1837 21.6707 29.7895 20.5896 28.628 19.4912C29.1509 20.4564 29.7491 21.3329 30.4235 21.9954C25.6574 20.6682 22.3626 17.9503 20.3881 15.8193C19.4804 17.533 17.8546 20.0391 15.3668 21.9481V26.8989C15.3668 30.3803 17.4053 33.3856 20.3539 34.7863V36.8242C19.2703 36.9715 18.2632 37.1583 17.3364 37.3302L17.3364 37.3302C15.6457 37.6438 14.2222 37.9079 13.0891 37.7916C10.8726 37.5643 9.67797 33.1198 9.60064 29.2846Z" fill="#E6E6E6"/>
<mask id="mask4_149_808" style="mask-type:luminance" maskUnits="userSpaceOnUse" x="9" y="9" width="30" height="29">
<path fill-rule="evenodd" clip-rule="evenodd" d="M9.60064 29.2846C9.50446 24.5151 14.014 14.559 15.6786 12.58C16.9133 11.112 20.3064 9.88106 24.0942 9.95056C27.8819 10.0201 31.3973 10.8495 32.6656 12.4253C34.5862 14.8115 38.5672 23.8832 38.5877 29.2846C38.6022 33.1205 37.1013 36.9656 35.0033 37.1729C33.8187 37.2899 32.314 37.138 30.506 36.9555L30.5059 36.9555L30.5058 36.9555H30.5058C29.6783 36.8719 28.7873 36.782 27.8344 36.7085V34.7863C30.7829 33.3856 32.8214 30.3803 32.8214 26.8989V22.5662C31.1837 21.6707 29.7895 20.5896 28.628 19.4912C29.1509 20.4564 29.7491 21.3329 30.4235 21.9954C25.6574 20.6682 22.3626 17.9503 20.3881 15.8193C19.4804 17.533 17.8546 20.0391 15.3668 21.9481V26.8989C15.3668 30.3803 17.4053 33.3856 20.3539 34.7863V36.8242C19.2703 36.9715 18.2632 37.1583 17.3364 37.3302L17.3364 37.3302C15.6457 37.6438 14.2222 37.9079 13.0891 37.7916C10.8726 37.5643 9.67797 33.1198 9.60064 29.2846Z" fill="white"/>
</mask>
<g mask="url(#mask4_149_808)">
<rect x="3.36694" y="6.85718" width="41.4545" height="43.3083" fill="#0C092A"/>
</g>
</g>
</g>
</svg>
