<svg width="39" height="38" viewBox="0 0 39 38" fill="none" xmlns="http://www.w3.org/2000/svg">
<g clip-path="url(#clip0_149_910)">
<rect x="0.905762" width="37.3333" height="37.3333" rx="18.6667" fill="#C4D0FB"/>
<circle cx="19.5724" cy="18.6667" r="18.6667" fill="#FFD6DD"/>
<path fill-rule="evenodd" clip-rule="evenodd" d="M19.5719 9.24854C15.6356 9.24854 12.4447 12.4395 12.4447 16.3758V17.1606C11.7223 17.2818 11.1719 17.91 11.1719 18.6668V20.4486C11.1719 21.2189 11.7421 21.856 12.4835 21.9607C12.7466 24.4815 14.3236 26.6115 16.5176 27.6537V30.0133C11.1204 30.3419 6.84473 34.8232 6.84473 40.3031H32.2993C32.2993 34.8233 28.0238 30.342 22.6267 30.0133V27.6535C24.8204 26.6113 26.3973 24.4814 26.6604 21.9607C27.4017 21.8559 27.9719 21.2188 27.9719 20.4486V18.6668C27.9719 17.91 27.4215 17.2818 26.6992 17.1606V16.3758C26.6992 12.4395 23.5082 9.24854 19.5719 9.24854Z" fill="#D0C6AC"/>
<mask id="mask0_149_910" style="mask-type:luminance" maskUnits="userSpaceOnUse" x="6" y="9" width="27" height="32">
<path fill-rule="evenodd" clip-rule="evenodd" d="M19.5719 9.24854C15.6356 9.24854 12.4447 12.4395 12.4447 16.3758V17.1606C11.7223 17.2818 11.1719 17.91 11.1719 18.6668V20.4486C11.1719 21.2189 11.7421 21.856 12.4835 21.9607C12.7466 24.4815 14.3236 26.6115 16.5176 27.6537V30.0133C11.1204 30.3419 6.84473 34.8232 6.84473 40.3031H32.2993C32.2993 34.8233 28.0238 30.342 22.6267 30.0133V27.6535C24.8204 26.6113 26.3973 24.4814 26.6604 21.9607C27.4017 21.8559 27.9719 21.2188 27.9719 20.4486V18.6668C27.9719 17.91 27.4215 17.2818 26.6992 17.1606V16.3758C26.6992 12.4395 23.5082 9.24854 19.5719 9.24854Z" fill="white"/>
</mask>
<g mask="url(#mask0_149_910)">
<rect x="2.77246" y="9.24854" width="33.6" height="31.0545" fill="#D08B5B"/>
<path fill-rule="evenodd" clip-rule="evenodd" d="M12.4448 21.2122V22.2304C12.4448 26.1667 15.6358 29.3577 19.5721 29.3577C23.5084 29.3577 26.6994 26.1667 26.6994 22.2304V21.2122C26.6994 25.1484 23.5084 28.3394 19.5721 28.3394C15.6358 28.3394 12.4448 25.1484 12.4448 21.2122Z" fill="black" fill-opacity="0.1"/>
</g>
<path fill-rule="evenodd" clip-rule="evenodd" d="M19.5721 33.5641C21.47 33.5641 23.0085 32.1396 23.0085 30.3823C23.0085 30.2694 23.0021 30.1578 22.9897 30.0479C28.2138 30.5474 32.2993 34.9482 32.2993 40.3031H6.84473C6.84473 34.9481 10.9303 30.5473 16.1545 30.0479C16.1421 30.1578 16.1357 30.2694 16.1357 30.3823C16.1357 32.1396 17.6743 33.5641 19.5721 33.5641Z" fill="#909292"/>
<mask id="mask1_149_910" style="mask-type:luminance" maskUnits="userSpaceOnUse" x="6" y="30" width="27" height="11">
<path fill-rule="evenodd" clip-rule="evenodd" d="M19.5721 33.5641C21.47 33.5641 23.0085 32.1396 23.0085 30.3823C23.0085 30.2694 23.0021 30.1578 22.9897 30.0479C28.2138 30.5474 32.2993 34.9482 32.2993 40.3031H6.84473C6.84473 34.9481 10.9303 30.5473 16.1545 30.0479C16.1421 30.1578 16.1357 30.2694 16.1357 30.3823C16.1357 32.1396 17.6743 33.5641 19.5721 33.5641Z" fill="white"/>
</mask>
<g mask="url(#mask1_149_910)">
<rect x="2.77246" y="26.303" width="33.6" height="14" fill="#909292"/>
</g>
<path fill-rule="evenodd" clip-rule="evenodd" d="M23.5988 40.303C24.0316 38.7656 24.2811 36.9569 24.2811 35.0213C24.2811 33.2519 24.0726 31.5886 23.7062 30.1416C28.5826 30.956 32.2993 35.1954 32.2993 40.303H23.5988ZM15.6726 40.303H6.84473C6.84473 35.1492 10.6291 30.8792 15.5706 30.1204C15.2008 31.5723 14.9902 33.2433 14.9902 35.0213C14.9902 36.9569 15.2398 38.7656 15.6726 40.303Z" fill="#0C1626"/>
<path fill-rule="evenodd" clip-rule="evenodd" d="M25.8086 37.2485L26.175 36.9737C26.8604 36.4597 27.805 36.4679 28.4813 36.9939L25.8086 37.2485Z" fill="#E6E6E6"/>
<path fill-rule="evenodd" clip-rule="evenodd" d="M15.6266 29.8667C14.863 33.5576 16.263 40.3031 16.263 40.3031H14.2266L12.4448 35.7212L13.2085 34.5758L12.4448 33.8122L14.863 29.994C14.863 29.994 15.2501 29.8736 15.6266 29.8667Z" fill="#0C092A"/>
<path fill-rule="evenodd" clip-rule="evenodd" d="M23.5174 29.8667C24.281 33.5576 22.881 40.3031 22.881 40.3031H24.9174L26.6992 35.7212L25.9356 34.5758L26.6992 33.8122L24.281 29.994C24.281 29.994 23.8939 29.8736 23.5174 29.8667Z" fill="#0C092A"/>
<path fill-rule="evenodd" clip-rule="evenodd" d="M16.5177 29.0444C15.6558 29.6295 15.1177 30.4594 15.1177 31.3798C15.1177 32.3217 15.6813 33.1689 16.5788 33.7558L17.3349 33.1601L17.9178 33.2023L17.7905 32.8013L17.8004 32.7934C17.024 32.3935 16.5177 31.7377 16.5177 30.9965C16.5177 30.9965 16.5177 30.9965 16.5177 30.9964V29.0444ZM22.6268 30.9952C22.6268 30.9956 22.6268 30.996 22.6268 30.9964C22.6268 30.9965 22.6268 30.9965 22.6268 30.9965C22.6268 31.7377 22.1206 32.3935 21.3441 32.7934L21.3543 32.8015L21.354 32.8013L21.2268 33.2023L21.8096 33.1601L22.5657 33.7558C23.4632 33.1688 24.0268 32.3217 24.0268 31.3798C24.0268 30.4594 23.4887 29.6296 22.6268 29.0445V30.9952Z" fill="#0C092A"/>
<path d="M17.7905 23.7577C17.7905 24.4414 18.5743 24.9032 19.5723 24.9032C20.5704 24.9032 21.3542 24.4414 21.3542 23.7577C21.3542 23.6171 21.2333 23.5032 21.0996 23.5032C20.9351 23.5032 20.8616 23.6184 20.8451 23.7577C20.6869 24.1316 20.2957 24.358 19.5723 24.3941C18.849 24.358 18.4577 24.1316 18.2996 23.7577C18.283 23.6184 18.2096 23.5032 18.0451 23.5032C17.9114 23.5032 17.7905 23.6171 17.7905 23.7577Z" fill="#0C092A"/>
<path fill-rule="evenodd" clip-rule="evenodd" d="M18.0449 21.2122C18.0449 21.7745 18.7287 22.2303 19.5722 22.2303C20.4157 22.2303 21.0995 21.7745 21.0995 21.2122" fill="black" fill-opacity="0.16"/>
<ellipse cx="16.2636" cy="18.9211" rx="0.763636" ry="0.763636" fill="#0C092A"/>
<ellipse cx="22.8818" cy="18.9211" rx="0.763637" ry="0.763636" fill="#0C092A"/>
<path d="M14.4347 17.2869C14.933 16.5858 16.299 16.1927 17.4756 16.4816C17.6121 16.5152 17.75 16.4317 17.7835 16.2951C17.817 16.1586 17.7335 16.0208 17.597 15.9872C16.2305 15.6517 14.6488 16.1069 14.0197 16.992C13.9383 17.1066 13.9652 17.2655 14.0798 17.347C14.1944 17.4284 14.3533 17.4015 14.4347 17.2869Z" fill="#0C092A"/>
<path d="M24.7108 17.2869C24.2125 16.5858 22.8466 16.1927 21.6699 16.4816C21.5334 16.5152 21.3955 16.4317 21.362 16.2951C21.3285 16.1586 21.412 16.0208 21.5485 15.9872C22.915 15.6517 24.4967 16.1069 25.1258 16.992C25.2072 17.1066 25.1803 17.2655 25.0657 17.347C24.9511 17.4284 24.7922 17.4015 24.7108 17.2869Z" fill="#0C092A"/>
<mask id="mask2_149_910" style="mask-type:luminance" maskUnits="userSpaceOnUse" x="2" y="4" width="35" height="37">
<rect x="2.77246" y="4.66675" width="33.6" height="35.6364" fill="white"/>
</mask>
<g mask="url(#mask2_149_910)">
<path fill-rule="evenodd" clip-rule="evenodd" d="M19.6366 25.7738C18.1715 25.8219 17.518 26.5222 17.0258 25.8105C16.6564 25.2763 16.811 24.3779 17.1561 23.8725C17.6473 23.1532 18.3135 23.5011 19.0585 23.4191C19.2611 23.3968 19.4646 23.3405 19.6366 23.2485C19.8087 23.3405 20.0121 23.3968 20.2147 23.4191C20.9597 23.5011 21.6259 23.1532 22.1171 23.8725C22.4622 24.3779 22.6168 25.2763 22.2474 25.8105C21.7552 26.5222 21.1017 25.7256 19.6366 25.7738ZM26.7496 17.1394C26.3138 18.9307 26.1135 20.7582 25.7975 22.5703C25.7316 22.948 25.6595 23.3244 25.583 23.7003C25.5669 23.7792 25.551 24.0723 25.4733 24.1094C25.2377 24.2219 24.7575 23.6235 24.6292 23.4884C24.3067 23.1491 23.987 22.8068 23.5943 22.5405C22.8008 22.0025 21.8718 21.6844 20.9051 21.6089C20.5007 21.5773 19.9538 21.6325 19.5726 21.8625C19.1914 21.6325 18.6445 21.5773 18.24 21.6089C17.2733 21.6844 16.3443 22.0025 15.5508 22.5405C15.1581 22.8068 14.8384 23.1491 14.516 23.4884C14.3876 23.6235 13.9074 24.2219 13.6718 24.1094C13.5941 24.0723 13.5782 23.7792 13.5622 23.7003C13.4856 23.3244 13.4135 22.948 13.3477 22.5703C13.0317 20.7582 12.8314 18.9307 12.3955 17.1394C12.2687 17.1394 12.1575 19.5255 12.1433 19.7478C12.0857 20.6507 12.0185 21.5336 12.1044 22.4373C12.2526 23.9962 12.407 25.951 13.5949 27.1415C14.6682 28.2172 16.2266 28.442 17.5707 29.121C17.7438 29.2085 17.9734 29.3164 18.2209 29.4048C18.4817 29.6038 18.9989 29.7394 19.5947 29.7394C20.2197 29.7394 20.7582 29.5902 21.0049 29.3751C21.2214 29.293 21.4203 29.1989 21.5744 29.121C22.9184 28.4419 24.4769 28.2172 25.5502 27.1415C26.7381 25.951 26.8925 23.9962 27.0408 22.4373C27.1266 21.5336 27.0594 20.6507 27.0018 19.7478C26.9877 19.5255 26.8764 17.1394 26.7496 17.1394Z" fill="#0C092A"/>
<mask id="mask3_149_910" style="mask-type:luminance" maskUnits="userSpaceOnUse" x="12" y="17" width="16" height="13">
<path fill-rule="evenodd" clip-rule="evenodd" d="M19.6366 25.7738C18.1715 25.8219 17.518 26.5222 17.0258 25.8105C16.6564 25.2763 16.811 24.3779 17.1561 23.8725C17.6473 23.1532 18.3135 23.5011 19.0585 23.4191C19.2611 23.3968 19.4646 23.3405 19.6366 23.2485C19.8087 23.3405 20.0121 23.3968 20.2147 23.4191C20.9597 23.5011 21.6259 23.1532 22.1171 23.8725C22.4622 24.3779 22.6168 25.2763 22.2474 25.8105C21.7552 26.5222 21.1017 25.7256 19.6366 25.7738ZM26.7496 17.1394C26.3138 18.9307 26.1135 20.7582 25.7975 22.5703C25.7316 22.948 25.6595 23.3244 25.583 23.7003C25.5669 23.7792 25.551 24.0723 25.4733 24.1094C25.2377 24.2219 24.7575 23.6235 24.6292 23.4884C24.3067 23.1491 23.987 22.8068 23.5943 22.5405C22.8008 22.0025 21.8718 21.6844 20.9051 21.6089C20.5007 21.5773 19.9538 21.6325 19.5726 21.8625C19.1914 21.6325 18.6445 21.5773 18.24 21.6089C17.2733 21.6844 16.3443 22.0025 15.5508 22.5405C15.1581 22.8068 14.8384 23.1491 14.516 23.4884C14.3876 23.6235 13.9074 24.2219 13.6718 24.1094C13.5941 24.0723 13.5782 23.7792 13.5622 23.7003C13.4856 23.3244 13.4135 22.948 13.3477 22.5703C13.0317 20.7582 12.8314 18.9307 12.3955 17.1394C12.2687 17.1394 12.1575 19.5255 12.1433 19.7478C12.0857 20.6507 12.0185 21.5336 12.1044 22.4373C12.2526 23.9962 12.407 25.951 13.5949 27.1415C14.6682 28.2172 16.2266 28.442 17.5707 29.121C17.7438 29.2085 17.9734 29.3164 18.2209 29.4048C18.4817 29.6038 18.9989 29.7394 19.5947 29.7394C20.2197 29.7394 20.7582 29.5902 21.0049 29.3751C21.2214 29.293 21.4203 29.1989 21.5744 29.121C22.9184 28.4419 24.4769 28.2172 25.5502 27.1415C26.7381 25.951 26.8925 23.9962 27.0408 22.4373C27.1266 21.5336 27.0594 20.6507 27.0018 19.7478C26.9877 19.5255 26.8764 17.1394 26.7496 17.1394Z" fill="white"/>
</mask>
<g mask="url(#mask3_149_910)">
<rect x="8.88135" y="13.8303" width="21.3818" height="19.3455" fill="#0C092A"/>
</g>
<path fill-rule="evenodd" clip-rule="evenodd" d="M14.6411 11.2876C14.6568 11.2806 14.6179 11.278 14.5246 11.2796C14.638 11.2794 14.6769 11.282 14.6411 11.2876ZM13.6057 9.28666C13.6054 9.28417 13.6078 9.30589 13.6057 9.28666V9.28666ZM27.3061 13.6731C27.2725 13.2509 27.213 12.8313 27.1129 12.4189C27.0334 12.0911 26.9248 11.7782 26.7964 11.4655C26.7189 11.2765 26.5377 11.017 26.5164 10.8131C26.4955 10.6123 26.6521 10.3899 26.6856 10.1561C26.718 9.92862 26.7125 9.6894 26.6658 9.46396C26.5598 8.95196 26.2084 8.47584 25.6659 8.34237C25.5447 8.31256 25.2887 8.3493 25.2031 8.27876C25.1049 8.19786 25.0366 7.92228 24.9477 7.81174C24.6944 7.49662 24.2993 7.29369 23.8826 7.36444C23.5758 7.41651 23.752 7.47996 23.5219 7.29938C23.394 7.19898 23.2984 7.04569 23.1742 6.937C22.9875 6.77373 22.7733 6.63396 22.5516 6.51926C21.9717 6.21915 21.3102 6.001 20.6624 5.89467C19.4806 5.70068 18.2194 5.8698 17.0739 6.17713C16.5039 6.33006 15.93 6.52413 15.4007 6.78078C15.1737 6.89083 15.0426 6.98211 14.806 7.01093C14.4332 7.05632 14.1175 7.05406 13.7645 7.21213C12.678 7.69857 12.1887 8.82707 12.6114 9.90701C12.6965 10.1242 12.8116 10.3149 12.9703 10.4904C13.1639 10.7043 13.2339 10.6622 13.0672 10.9082C12.8179 11.276 12.6077 11.6682 12.4366 12.0755C11.9875 13.1448 11.9123 14.3491 11.9416 15.4895C11.9518 15.8887 11.969 16.2929 12.0319 16.6883C12.0591 16.8594 12.0667 17.1812 12.1951 17.3082C12.2602 17.3726 12.353 17.4085 12.4456 17.3829C12.6632 17.3226 12.5883 17.162 12.5934 17.013C12.6188 16.2642 12.5845 15.6017 12.7626 14.8619C12.8941 14.3153 13.1134 13.8189 13.3975 13.3302C13.7588 12.7086 14.1488 12.1626 14.6456 11.6304C14.7624 11.5052 14.7879 11.4521 14.9446 11.443C15.0632 11.4362 15.2367 11.5174 15.352 11.5455C15.6063 11.6075 15.861 11.6688 16.1199 11.7105C16.5959 11.7872 17.0672 11.7924 17.5475 11.7773C18.4927 11.7478 19.4419 11.6815 20.3583 11.4435C20.9669 11.2854 21.5065 11.0017 22.0895 10.7938C22.0999 10.79 22.246 10.6859 22.2716 10.6902C22.3073 10.6961 22.5232 10.9226 22.5596 10.9511C22.8429 11.1732 23.1536 11.2665 23.4595 11.4385C23.8367 11.6506 23.4714 11.3471 23.6794 11.6114C23.7401 11.6884 23.7711 11.8311 23.8197 11.9183C23.9745 12.1962 24.1898 12.4403 24.4473 12.6341C24.6961 12.8212 25.0701 12.9117 25.197 13.1553C25.2948 13.3433 25.3278 13.5987 25.4067 13.7994C25.6139 14.3257 25.8874 14.8165 26.1609 15.3122C26.3813 15.7117 26.6223 16.0606 26.6468 16.5171C26.6553 16.6761 26.5042 17.6292 26.8724 17.3393C26.927 17.2964 27.0448 16.8104 27.069 16.7279C27.1671 16.3928 27.202 16.043 27.2464 15.6988C27.3348 15.0141 27.3639 14.3627 27.3061 13.6731Z" fill="#28354B"/>
<mask id="mask4_149_910" style="mask-type:luminance" maskUnits="userSpaceOnUse" x="11" y="5" width="17" height="13">
<path fill-rule="evenodd" clip-rule="evenodd" d="M14.6411 11.2876C14.6568 11.2806 14.6179 11.278 14.5246 11.2796C14.638 11.2794 14.6769 11.282 14.6411 11.2876ZM13.6057 9.28666C13.6054 9.28417 13.6078 9.30589 13.6057 9.28666V9.28666ZM27.3061 13.6731C27.2725 13.2509 27.213 12.8313 27.1129 12.4189C27.0334 12.0911 26.9248 11.7782 26.7964 11.4655C26.7189 11.2765 26.5377 11.017 26.5164 10.8131C26.4955 10.6123 26.6521 10.3899 26.6856 10.1561C26.718 9.92862 26.7125 9.6894 26.6658 9.46396C26.5598 8.95196 26.2084 8.47584 25.6659 8.34237C25.5447 8.31256 25.2887 8.3493 25.2031 8.27876C25.1049 8.19786 25.0366 7.92228 24.9477 7.81174C24.6944 7.49662 24.2993 7.29369 23.8826 7.36444C23.5758 7.41651 23.752 7.47996 23.5219 7.29938C23.394 7.19898 23.2984 7.04569 23.1742 6.937C22.9875 6.77373 22.7733 6.63396 22.5516 6.51926C21.9717 6.21915 21.3102 6.001 20.6624 5.89467C19.4806 5.70068 18.2194 5.8698 17.0739 6.17713C16.5039 6.33006 15.93 6.52413 15.4007 6.78078C15.1737 6.89083 15.0426 6.98211 14.806 7.01093C14.4332 7.05632 14.1175 7.05406 13.7645 7.21213C12.678 7.69857 12.1887 8.82707 12.6114 9.90701C12.6965 10.1242 12.8116 10.3149 12.9703 10.4904C13.1639 10.7043 13.2339 10.6622 13.0672 10.9082C12.8179 11.276 12.6077 11.6682 12.4366 12.0755C11.9875 13.1448 11.9123 14.3491 11.9416 15.4895C11.9518 15.8887 11.969 16.2929 12.0319 16.6883C12.0591 16.8594 12.0667 17.1812 12.1951 17.3082C12.2602 17.3726 12.353 17.4085 12.4456 17.3829C12.6632 17.3226 12.5883 17.162 12.5934 17.013C12.6188 16.2642 12.5845 15.6017 12.7626 14.8619C12.8941 14.3153 13.1134 13.8189 13.3975 13.3302C13.7588 12.7086 14.1488 12.1626 14.6456 11.6304C14.7624 11.5052 14.7879 11.4521 14.9446 11.443C15.0632 11.4362 15.2367 11.5174 15.352 11.5455C15.6063 11.6075 15.861 11.6688 16.1199 11.7105C16.5959 11.7872 17.0672 11.7924 17.5475 11.7773C18.4927 11.7478 19.4419 11.6815 20.3583 11.4435C20.9669 11.2854 21.5065 11.0017 22.0895 10.7938C22.0999 10.79 22.246 10.6859 22.2716 10.6902C22.3073 10.6961 22.5232 10.9226 22.5596 10.9511C22.8429 11.1732 23.1536 11.2665 23.4595 11.4385C23.8367 11.6506 23.4714 11.3471 23.6794 11.6114C23.7401 11.6884 23.7711 11.8311 23.8197 11.9183C23.9745 12.1962 24.1898 12.4403 24.4473 12.6341C24.6961 12.8212 25.0701 12.9117 25.197 13.1553C25.2948 13.3433 25.3278 13.5987 25.4068 13.7994C25.6139 14.3257 25.8874 14.8165 26.1609 15.3122C26.3813 15.7117 26.6223 16.0606 26.6468 16.5171C26.6554 16.6761 26.5042 17.6292 26.8725 17.3393C26.927 17.2964 27.0448 16.8104 27.069 16.7279C27.1671 16.3928 27.202 16.043 27.2464 15.6988C27.3348 15.0141 27.3639 14.3627 27.3061 13.6731Z" fill="white"/>
</mask>
<g mask="url(#mask4_149_910)">
<rect x="2.77246" y="4.66675" width="33.6" height="35.6364" fill="#0C092A"/>
</g>
</g>
</g>
<defs>
<clipPath id="clip0_149_910">
<rect x="0.905762" width="37.3333" height="37.3333" rx="18.6667" fill="white"/>
</clipPath>
</defs>
</svg>
